<svg xmlns="http://www.w3.org/2000/svg" xmlns:xlink="http://www.w3.org/1999/xlink" width="500" zoomAndPan="magnify" viewBox="0 0 375 374.999991" height="500" preserveAspectRatio="xMidYMid meet" version="1.2"><defs><clipPath id="0f47303151"><path d="M 45 146.046875 L 129 146.046875 L 129 229 L 45 229 Z M 45 146.046875 "/></clipPath></defs><g id="84b971a77c"><g clip-rule="nonzero" clip-path="url(#0f47303151)"><path style=" stroke:none;fill-rule:evenodd;fill:#fff8f5;fill-opacity:1;" d="M 115.894531 170.398438 C 115.378906 177.101562 112.804688 184.058594 108.679688 190.628906 L 105.460938 179.417969 L 105.847656 177.875 L 107.777344 171.429688 L 103.011719 173.75 L 95.023438 171.816406 C 95.023438 169.757812 93.347656 167.953125 91.15625 167.953125 C 89.097656 167.953125 87.292969 169.628906 87.292969 171.816406 C 87.292969 173.878906 88.96875 175.683594 91.15625 175.683594 C 92.574219 175.683594 93.734375 174.910156 94.378906 173.878906 L 102.882812 176.070312 L 107.648438 192.046875 C 100.820312 202.484375 90.253906 211.503906 78.789062 216.011719 C 60.75 222.96875 46.835938 216.011719 46.320312 200.292969 C 46.191406 201.453125 46.0625 202.484375 45.933594 203.515625 C 44.515625 224.644531 61.78125 234.566406 84.585938 225.675781 C 107.390625 216.914062 126.976562 192.5625 128.394531 171.558594 C 129.8125 150.429688 112.546875 140.507812 89.742188 149.398438 C 88.582031 149.914062 87.421875 150.300781 86.261719 150.945312 C 103.785156 145.660156 116.539062 154.035156 115.507812 170.65625 Z M 108.679688 190.628906 C 108.9375 190.242188 109.066406 189.855469 109.324219 189.46875 L 110.226562 192.433594 C 110.226562 192.433594 110.355469 192.433594 110.355469 192.433594 C 112.160156 192.433594 113.578125 193.851562 113.578125 195.652344 C 113.578125 197.457031 112.160156 198.875 110.355469 198.875 C 108.550781 198.875 107.132812 197.457031 107.132812 195.652344 C 107.132812 194.625 107.519531 193.851562 108.292969 193.207031 Z M 108.292969 193.207031 Z M 108.292969 193.207031 Z M 108.292969 193.207031 Z M 108.292969 193.207031 Z M 108.292969 193.207031 Z M 108.292969 193.207031 Z M 108.292969 193.207031 Z M 108.292969 193.207031 Z M 108.292969 193.207031 Z M 108.292969 193.207031 Z M 108.292969 193.207031 Z M 108.292969 193.207031 Z M 108.292969 193.207031 Z M 108.292969 193.207031 Z M 108.292969 193.207031 Z M 108.292969 193.207031 Z M 108.292969 193.207031 Z M 108.292969 193.207031 Z M 108.292969 193.207031 Z M 108.292969 193.207031 Z M 108.292969 193.207031 Z M 108.292969 193.207031 Z M 108.292969 193.207031 L 109.066406 192.691406 L 108.550781 190.628906 L 108.292969 193.078125 Z M 108.292969 193.207031 Z M 110.097656 192.5625 Z M 109.96875 192.5625 C 109.96875 192.5625 109.96875 192.5625 109.839844 192.5625 C 109.839844 192.5625 109.839844 192.5625 109.96875 192.5625 Z M 109.839844 192.5625 C 109.839844 192.5625 109.839844 192.5625 109.710938 192.5625 C 109.710938 192.5625 109.710938 192.5625 109.839844 192.5625 Z M 109.710938 192.5625 C 109.710938 192.5625 109.710938 192.5625 109.582031 192.5625 C 109.582031 192.5625 109.582031 192.5625 109.710938 192.5625 Z M 109.582031 192.5625 C 109.582031 192.5625 109.582031 192.5625 109.453125 192.5625 C 109.453125 192.5625 109.453125 192.5625 109.582031 192.5625 Z M 109.453125 192.5625 C 109.453125 192.5625 109.453125 192.5625 109.324219 192.5625 Z M 109.324219 192.5625 C 109.324219 192.5625 109.324219 192.5625 109.195312 192.5625 C 109.195312 192.5625 109.195312 192.5625 109.324219 192.5625 Z M 109.195312 192.5625 C 109.195312 192.5625 109.195312 192.5625 109.066406 192.5625 C 109.066406 192.5625 109.066406 192.5625 109.195312 192.5625 Z M 109.066406 192.5625 C 109.066406 192.5625 109.066406 192.5625 108.9375 192.5625 C 108.9375 192.5625 108.9375 192.5625 109.066406 192.5625 Z M 108.9375 192.5625 C 108.9375 192.5625 108.9375 192.5625 108.808594 192.5625 C 108.808594 192.5625 108.808594 192.5625 108.9375 192.5625 Z M 108.808594 192.5625 C 108.808594 192.5625 108.808594 192.5625 108.679688 192.5625 Z M 108.808594 192.5625 "/></g><path style=" stroke:none;fill-rule:evenodd;fill:#fff8f5;fill-opacity:1;" d="M 63.714844 209.054688 C 61.910156 206.992188 60.363281 204.671875 58.945312 202.355469 L 50.441406 204.414062 C 52.246094 206.605469 54.179688 208.410156 56.371094 210.085938 L 63.84375 209.054688 Z M 95.023438 156.355469 C 95.796875 156.355469 96.3125 157 96.3125 157.644531 C 96.3125 158.417969 95.667969 158.933594 95.023438 158.933594 C 94.25 158.933594 93.734375 158.289062 93.734375 157.644531 C 93.734375 156.871094 94.378906 156.355469 95.023438 156.355469 Z M 95.023438 154.421875 C 96.828125 154.421875 98.246094 155.839844 98.246094 157.644531 C 98.246094 159.449219 96.828125 160.867188 95.023438 160.867188 C 93.21875 160.867188 91.800781 159.449219 91.800781 157.644531 C 91.800781 157.386719 91.800781 157.128906 91.929688 157 L 87.164062 155.195312 L 80.722656 156.355469 L 79.433594 159.449219 L 83.296875 167.4375 L 74.148438 170.785156 L 70.285156 161.511719 L 77.757812 159.191406 L 79.304688 155.710938 L 75.4375 150.042969 C 75.695312 150.042969 75.953125 150.042969 76.210938 150.042969 C 78.660156 150.042969 81.109375 150.300781 83.554688 150.816406 C 84.585938 151.074219 85.746094 151.332031 86.777344 151.71875 C 87.9375 152.105469 89.097656 152.621094 90.253906 153.132812 C 89.871094 153.261719 89.484375 153.261719 89.097656 153.390625 L 92.574219 155.710938 C 93.21875 154.9375 94.121094 154.421875 95.152344 154.421875 Z M 57.914062 155.453125 C 58.429688 158.546875 59.074219 161.511719 59.71875 164.34375 L 67.835938 160.480469 L 64.230469 152.105469 C 62.039062 153.007812 59.847656 154.035156 57.914062 155.324219 Z M 43.484375 176.585938 L 49.410156 171.945312 C 49.152344 169.371094 49.023438 166.792969 49.023438 164.085938 C 46.320312 167.824219 44.515625 172.074219 43.484375 176.714844 Z M 50.957031 182.125 C 50.3125 179.417969 49.925781 176.585938 49.539062 173.621094 L 43.097656 178.386719 C 42.839844 180.0625 42.710938 181.609375 42.710938 183.285156 C 42.710938 184.445312 42.710938 185.605469 42.839844 186.765625 L 50.828125 182.125 Z M 52.761719 181.09375 L 60.878906 176.457031 C 59.976562 173.492188 59.203125 170.269531 58.429688 167.179688 L 51.34375 172.460938 C 51.730469 175.425781 52.246094 178.386719 52.890625 181.222656 Z M 55.726562 191.273438 L 64.746094 187.535156 C 63.585938 184.574219 62.554688 181.480469 61.523438 178.386719 L 53.277344 182.898438 C 53.921875 185.863281 54.824219 188.566406 55.855469 191.273438 Z M 45.804688 197.070312 C 46.835938 199.261719 48.121094 201.453125 49.539062 203.257812 L 50.054688 203.128906 L 57.914062 200.808594 C 56.625 198.617188 55.597656 196.296875 54.566406 193.851562 Z M 60.75 201.839844 C 62.167969 204.285156 63.714844 206.605469 65.515625 208.796875 L 74.792969 207.507812 C 73.121094 204.929688 71.574219 202.355469 70.15625 199.519531 L 60.621094 201.710938 Z M 60.75 201.839844 "/><path style=" stroke:none;fill-rule:evenodd;fill:#f4551a;fill-opacity:1;" d="M 51.085938 170.527344 L 58.042969 165.117188 C 57.398438 162.28125 56.882812 159.449219 56.371094 156.613281 C 54.179688 158.160156 52.246094 160.09375 50.570312 162.152344 C 50.699219 164.988281 50.957031 167.824219 51.214844 170.65625 Z M 84.84375 193.722656 L 77.757812 190.242188 C 77.757812 188.566406 76.46875 187.277344 74.792969 187.277344 C 73.121094 187.277344 71.832031 188.566406 71.832031 190.242188 C 71.832031 191.917969 73.121094 193.207031 74.792969 193.207031 C 75.695312 193.207031 76.597656 192.820312 77.113281 192.175781 L 84.328125 195.78125 L 83.683594 194.238281 L 88.710938 207.25 C 91.027344 205.703125 93.089844 204.027344 95.152344 202.097656 C 95.410156 201.839844 95.667969 201.582031 96.054688 201.324219 L 92.703125 190.628906 L 83.683594 194.238281 Z M 75.050781 182.769531 L 83.296875 184.832031 C 83.296875 187.019531 85.101562 188.824219 87.292969 188.824219 C 89.484375 188.824219 91.285156 187.019531 91.285156 184.832031 C 91.285156 182.640625 89.484375 180.835938 87.292969 180.835938 C 85.875 180.835938 84.585938 181.609375 83.8125 182.769531 L 75.824219 180.835938 L 72.734375 172.976562 L 63.070312 177.230469 C 64.101562 180.449219 65.128906 183.542969 66.417969 186.507812 L 76.46875 182.125 L 75.179688 182.769531 Z M 87.292969 186.890625 C 86.132812 186.890625 85.230469 185.992188 85.230469 184.832031 C 85.230469 183.671875 86.132812 182.769531 87.292969 182.769531 C 88.453125 182.769531 89.355469 183.671875 89.355469 184.832031 C 89.355469 185.992188 88.453125 186.890625 87.292969 186.890625 Z M 74.664062 188.953125 C 75.4375 188.953125 75.953125 189.597656 75.953125 190.242188 C 75.953125 191.015625 75.308594 191.53125 74.664062 191.53125 C 73.890625 191.53125 73.375 190.886719 73.375 190.242188 C 73.375 189.46875 74.019531 188.953125 74.664062 188.953125 Z M 69.640625 215.238281 C 67.835938 213.691406 66.160156 212.019531 64.617188 210.34375 L 57.398438 210.988281 C 60.363281 213.046875 63.714844 214.464844 67.320312 215.496094 C 68.09375 215.496094 68.867188 215.367188 69.511719 215.238281 Z M 75.824219 209.3125 L 66.546875 210.214844 C 67.964844 211.890625 69.511719 213.433594 71.1875 214.980469 C 73.503906 214.59375 75.824219 213.820312 77.886719 213.046875 C 78.015625 213.046875 78.144531 212.917969 78.402344 212.917969 C 77.5 211.761719 76.726562 210.601562 75.953125 209.441406 Z M 66.675781 166.792969 L 65.128906 162.410156 L 60.363281 164.730469 Z M 74.792969 171.429688 L 80.722656 173.878906 L 79.691406 169.5 Z M 63.972656 175.8125 L 68.867188 173.621094 L 66.675781 169.757812 L 63.972656 175.941406 Z M 65.386719 189.726562 L 56.242188 193.078125 C 57.269531 195.523438 58.300781 197.84375 59.589844 200.164062 L 68.867188 197.328125 C 67.578125 194.882812 66.417969 192.304688 65.386719 189.597656 Z M 51.214844 183.800781 L 42.96875 188.308594 C 43.355469 190.886719 44 193.335938 45.03125 195.652344 L 53.664062 191.917969 C 52.632812 189.339844 51.859375 186.507812 51.214844 183.671875 Z M 51.214844 183.800781 "/><g style="fill:#fff8f5;fill-opacity:1;"><g transform="translate(143.317333, 200.999987)"><path style="stroke:none" d="M 7.546875 0 L 0.953125 0 L 11 -29.09375 L 18.921875 -29.09375 L 28.953125 0 L 22.359375 0 L 20.203125 -6.640625 L 9.703125 -6.640625 Z M 11.265625 -11.4375 L 18.65625 -11.4375 L 15.078125 -22.4375 L 14.84375 -22.4375 Z M 11.265625 -11.4375 "/></g></g><g style="fill:#fff8f5;fill-opacity:1;"><g transform="translate(173.229246, 200.999987)"><path style="stroke:none" d="M 8.46875 -29.09375 L 8.46875 0 L 2.421875 0 L 2.421875 -29.09375 Z M 8.46875 -29.09375 "/></g></g><g style="fill:#fff8f5;fill-opacity:1;"><g transform="translate(184.108891, 200.999987)"><path style="stroke:none" d="M 14.015625 -21.8125 L 14.015625 -17.265625 L 9.921875 -17.265625 L 9.921875 -6.703125 C 9.921875 -5.867188 10.109375 -5.304688 10.484375 -5.015625 C 10.859375 -4.722656 11.347656 -4.578125 11.953125 -4.578125 C 12.242188 -4.578125 12.53125 -4.601562 12.8125 -4.65625 C 13.09375 -4.707031 13.3125 -4.742188 13.46875 -4.765625 L 14.421875 -0.265625 C 14.117188 -0.171875 13.691406 -0.0625 13.140625 0.0625 C 12.585938 0.1875 11.921875 0.265625 11.140625 0.296875 C 8.941406 0.390625 7.175781 -0.0820312 5.84375 -1.125 C 4.507812 -2.175781 3.847656 -3.769531 3.859375 -5.90625 L 3.859375 -17.265625 L 0.875 -17.265625 L 0.875 -21.8125 L 3.859375 -21.8125 L 3.859375 -27.046875 L 9.921875 -27.046875 L 9.921875 -21.8125 Z M 14.015625 -21.8125 "/></g></g><g style="fill:#fff8f5;fill-opacity:1;"><g transform="translate(199.647186, 200.999987)"><path style="stroke:none" d="M 8.640625 0.40625 C 6.554688 0.40625 4.828125 -0.132812 3.453125 -1.21875 C 2.078125 -2.3125 1.390625 -3.9375 1.390625 -6.09375 C 1.390625 -7.71875 1.769531 -8.992188 2.53125 -9.921875 C 3.300781 -10.859375 4.304688 -11.539062 5.546875 -11.96875 C 6.796875 -12.394531 8.144531 -12.675781 9.59375 -12.8125 C 11.476562 -13 12.828125 -13.195312 13.640625 -13.40625 C 14.460938 -13.613281 14.875 -14.066406 14.875 -14.765625 L 14.875 -14.859375 C 14.875 -15.753906 14.59375 -16.445312 14.03125 -16.9375 C 13.46875 -17.4375 12.671875 -17.6875 11.640625 -17.6875 C 10.546875 -17.6875 9.675781 -17.445312 9.03125 -16.96875 C 8.382812 -16.5 7.957031 -15.898438 7.75 -15.171875 L 2.15625 -15.625 C 2.570312 -17.613281 3.601562 -19.191406 5.25 -20.359375 C 6.90625 -21.523438 9.039062 -22.109375 11.65625 -22.109375 C 13.28125 -22.109375 14.796875 -21.847656 16.203125 -21.328125 C 17.617188 -20.816406 18.757812 -20.019531 19.625 -18.9375 C 20.488281 -17.851562 20.921875 -16.445312 20.921875 -14.71875 L 20.921875 0 L 15.1875 0 L 15.1875 -3.03125 L 15.015625 -3.03125 C 14.484375 -2.007812 13.6875 -1.179688 12.625 -0.546875 C 11.570312 0.0859375 10.242188 0.40625 8.640625 0.40625 Z M 10.375 -3.765625 C 11.695312 -3.765625 12.785156 -4.148438 13.640625 -4.921875 C 14.492188 -5.691406 14.921875 -6.648438 14.921875 -7.796875 L 14.921875 -10.109375 C 14.679688 -9.953125 14.3125 -9.8125 13.8125 -9.6875 C 13.3125 -9.5625 12.78125 -9.453125 12.21875 -9.359375 C 11.65625 -9.273438 11.148438 -9.203125 10.703125 -9.140625 C 9.648438 -8.984375 8.796875 -8.679688 8.140625 -8.234375 C 7.492188 -7.796875 7.171875 -7.148438 7.171875 -6.296875 C 7.171875 -5.460938 7.472656 -4.832031 8.078125 -4.40625 C 8.679688 -3.976562 9.445312 -3.765625 10.375 -3.765625 Z M 10.375 -3.765625 "/></g></g><g style="fill:#fff8f5;fill-opacity:1;"><g transform="translate(222.855197, 200.999987)"><path style="stroke:none" d="M 1.421875 -24.015625 L 1.421875 -29.09375 L 25.3125 -29.09375 L 25.3125 -24.015625 L 16.40625 -24.015625 L 16.40625 0 L 10.328125 0 L 10.328125 -24.015625 Z M 1.421875 -24.015625 "/></g></g><g style="fill:#fff8f5;fill-opacity:1;"><g transform="translate(249.585595, 200.999987)"><path style="stroke:none" d="M 12.359375 0.421875 C 10.117188 0.421875 8.1875 -0.03125 6.5625 -0.9375 C 4.945312 -1.851562 3.703125 -3.148438 2.828125 -4.828125 C 1.960938 -6.515625 1.53125 -8.507812 1.53125 -10.8125 C 1.53125 -13.050781 1.960938 -15.019531 2.828125 -16.71875 C 3.703125 -18.414062 4.929688 -19.738281 6.515625 -20.6875 C 8.109375 -21.632812 9.972656 -22.109375 12.109375 -22.109375 C 14.035156 -22.109375 15.769531 -21.695312 17.3125 -20.875 C 18.863281 -20.0625 20.09375 -18.832031 21 -17.1875 C 21.914062 -15.550781 22.375 -13.492188 22.375 -11.015625 L 22.375 -9.359375 L 7.515625 -9.359375 L 7.515625 -9.34375 C 7.515625 -7.71875 7.957031 -6.4375 8.84375 -5.5 C 9.738281 -4.5625 10.941406 -4.09375 12.453125 -4.09375 C 13.472656 -4.09375 14.347656 -4.304688 15.078125 -4.734375 C 15.816406 -5.160156 16.335938 -5.789062 16.640625 -6.625 L 22.25 -6.25 C 21.820312 -4.21875 20.738281 -2.597656 19 -1.390625 C 17.269531 -0.179688 15.054688 0.421875 12.359375 0.421875 Z M 7.515625 -13.109375 L 16.671875 -13.109375 C 16.660156 -14.410156 16.242188 -15.476562 15.421875 -16.3125 C 14.597656 -17.15625 13.53125 -17.578125 12.21875 -17.578125 C 10.875 -17.578125 9.769531 -17.140625 8.90625 -16.265625 C 8.039062 -15.398438 7.578125 -14.347656 7.515625 -13.109375 Z M 7.515625 -13.109375 "/></g></g><g style="fill:#fff8f5;fill-opacity:1;"><g transform="translate(273.489566, 200.999987)"><path style="stroke:none" d="M 12.265625 0.421875 C 10.035156 0.421875 8.117188 -0.0507812 6.515625 -1 C 4.910156 -1.945312 3.675781 -3.269531 2.8125 -4.96875 C 1.957031 -6.664062 1.53125 -8.617188 1.53125 -10.828125 C 1.53125 -13.054688 1.960938 -15.015625 2.828125 -16.703125 C 3.703125 -18.398438 4.9375 -19.722656 6.53125 -20.671875 C 8.132812 -21.628906 10.039062 -22.109375 12.25 -22.109375 C 14.144531 -22.109375 15.8125 -21.757812 17.25 -21.0625 C 18.6875 -20.375 19.816406 -19.40625 20.640625 -18.15625 C 21.472656 -16.90625 21.929688 -15.4375 22.015625 -13.75 L 16.3125 -13.75 C 16.144531 -14.84375 15.71875 -15.722656 15.03125 -16.390625 C 14.34375 -17.054688 13.445312 -17.390625 12.34375 -17.390625 C 10.9375 -17.390625 9.804688 -16.820312 8.953125 -15.6875 C 8.109375 -14.5625 7.6875 -12.96875 7.6875 -10.90625 C 7.6875 -8.820312 8.109375 -7.207031 8.953125 -6.0625 C 9.804688 -4.925781 10.9375 -4.359375 12.34375 -4.359375 C 13.382812 -4.359375 14.257812 -4.671875 14.96875 -5.296875 C 15.675781 -5.929688 16.125 -6.832031 16.3125 -8 L 22.015625 -8 C 21.921875 -6.332031 21.46875 -4.863281 20.65625 -3.59375 C 19.851562 -2.320312 18.738281 -1.332031 17.3125 -0.625 C 15.894531 0.0703125 14.210938 0.421875 12.265625 0.421875 Z M 12.265625 0.421875 "/></g></g><g style="fill:#fff8f5;fill-opacity:1;"><g transform="translate(296.981641, 200.999987)"><path style="stroke:none" d="M 8.46875 -12.609375 L 8.46875 0 L 2.421875 0 L 2.421875 -29.09375 L 8.296875 -29.09375 L 8.296875 -17.96875 L 8.546875 -17.96875 C 9.046875 -19.257812 9.84375 -20.269531 10.9375 -21 C 12.03125 -21.738281 13.410156 -22.109375 15.078125 -22.109375 C 17.347656 -22.109375 19.171875 -21.378906 20.546875 -19.921875 C 21.929688 -18.460938 22.617188 -16.453125 22.609375 -13.890625 L 22.609375 0 L 16.5625 0 L 16.5625 -12.8125 C 16.570312 -14.15625 16.234375 -15.203125 15.546875 -15.953125 C 14.859375 -16.703125 13.898438 -17.078125 12.671875 -17.078125 C 11.441406 -17.078125 10.4375 -16.6875 9.65625 -15.90625 C 8.875 -15.125 8.476562 -14.023438 8.46875 -12.609375 Z M 8.46875 -12.609375 "/></g></g></g></svg>